<svg xmlns="http://www.w3.org/2000/svg" width="800" height="450" viewBox="0 0 800 450" role="img"><rect x="0" y="0" width="800" height="450" fill="#E9E5D8" /><g stroke="#17150F" stroke-opacity=".1"><path d="M100 0v450M200 0v450M300 0v450M400 0v450M500 0v450M600 0v450M700 0v450M0 90h800M0 180h800M0 270h800M0 360h800"/></g><g stroke="#17150F" stroke-opacity=".45" stroke-width="1.5">
      <path d="M24 16v16M16 24h16M776 16v16M768 24h16M24 418v16M16 426h16M776 418v16M768 426h16"/>
    </g><rect x="0" y="444" width="800" height="6" fill="#E23A21" /><rect x="70" y="62" width="190" height="286" fill="#E9E5D8" stroke="#17150F" stroke-width="2"/><text x="86" y="92" font-family="'Space Mono',Courier,monospace" font-size="13" font-weight="700" letter-spacing="1.6" fill="#17150F">OVERVIEW</text><rect x="86" y="108" width="158" height="44" fill="#17150F" opacity="0.12"/><text x="98" y="137" font-family="'Space Mono',Courier,monospace" font-size="19" font-weight="700" letter-spacing="2.3" fill="#17150F">1.2K</text><rect x="86" y="166" width="158" height="44" fill="#17150F" opacity="0.9"/><text x="98" y="195" font-family="'Space Mono',Courier,monospace" font-size="19" font-weight="700" letter-spacing="2.3" fill="#E9E5D8">98%</text><rect x="86" y="224" width="158" height="44" fill="#17150F" opacity="0.12"/><text x="98" y="253" font-family="'Space Mono',Courier,monospace" font-size="19" font-weight="700" letter-spacing="2.3" fill="#17150F">24H</text><rect x="86" y="282" width="158" height="44" fill="#17150F" opacity="0.12"/><text x="98" y="311" font-family="'Space Mono',Courier,monospace" font-size="19" font-weight="700" letter-spacing="2.3" fill="#17150F">512</text><text x="316" y="96" font-family="'Space Mono',Courier,monospace" font-size="13" font-weight="700" letter-spacing="1.6" fill="#6B6557">THROUGHPUT / 12 WEEKS</text><rect x="316" y="270" width="380" height="2" fill="#17150F" opacity=".6"/><rect x="316" y="131" width="20" height="137" fill="#17150F" opacity=".72"/><rect x="348" y="151" width="20" height="117" fill="#17150F" opacity=".72"/><rect x="380" y="201" width="20" height="67" fill="#17150F" opacity=".72"/><rect x="412" y="227" width="20" height="41" fill="#17150F" opacity=".72"/><rect x="444" y="171" width="20" height="97" fill="#17150F" opacity=".72"/><rect x="476" y="211" width="20" height="57" fill="#17150F" opacity=".72"/><rect x="508" y="175" width="20" height="93" fill="#17150F" opacity=".72"/><rect x="540" y="155" width="20" height="113" fill="#17150F" opacity=".72"/><rect x="572" y="232" width="20" height="36" fill="#E23A21" /><rect x="604" y="158" width="20" height="110" fill="#17150F" opacity=".72"/><rect x="636" y="192" width="20" height="76" fill="#17150F" opacity=".72"/><rect x="668" y="181" width="20" height="87" fill="#17150F" opacity=".72"/><rect x="316" y="300" width="380" height="1" fill="#17150F" opacity=".3"/><rect x="316" y="308" width="203" height="7" fill="#17150F" opacity=".55"/><rect x="600" y="308" width="52" height="7" fill="#6B6557" opacity=".6"/><rect x="316" y="328" width="380" height="1" fill="#17150F" opacity=".3"/><rect x="316" y="336" width="162" height="7" fill="#17150F" opacity=".55"/><rect x="600" y="336" width="52" height="7" fill="#6B6557" opacity=".6"/><rect x="316" y="356" width="380" height="1" fill="#17150F" opacity=".3"/><rect x="316" y="364" width="179" height="7" fill="#17150F" opacity=".55"/><rect x="600" y="364" width="52" height="7" fill="#6B6557" opacity=".6"/><rect x="316" y="384" width="380" height="1" fill="#17150F" opacity=".3"/><rect x="316" y="392" width="197" height="7" fill="#17150F" opacity=".55"/><rect x="600" y="392" width="52" height="7" fill="#6B6557" opacity=".6"/><text x="560" y="128" font-family="'Archivo','Arial Black',Arial" font-size="66" font-weight="900" letter-spacing="-2.0" fill="#17150F">OPS</text><g stroke="#17150F" stroke-opacity=".35"><path d="M44 376h240"/></g><text x="44" y="402" font-family="'Space Mono',Courier,monospace" font-size="17" font-weight="700" letter-spacing="2.0" fill="#17150F">DATA CONSOLE</text><text x="44" y="424" font-family="'Space Mono',Courier,monospace" font-size="12" font-weight="700" letter-spacing="1.4" fill="#6B6557">PLATE 04 — SHIKI CODE STUDIO</text></svg>
