<svg xmlns="http://www.w3.org/2000/svg" width="800" height="450" viewBox="0 0 800 450" role="img"><rect x="0" y="0" width="800" height="450" fill="#E9E5D8" /><g stroke="#17150F" stroke-opacity=".1"><path d="M100 0v450M200 0v450M300 0v450M400 0v450M500 0v450M600 0v450M700 0v450M0 90h800M0 180h800M0 270h800M0 360h800"/></g><g stroke="#17150F" stroke-opacity=".45" stroke-width="1.5">
      <path d="M24 16v16M16 24h16M776 16v16M768 24h16M24 418v16M16 426h16M776 418v16M768 426h16"/>
    </g><rect x="0" y="444" width="800" height="6" fill="#E23A21" /><rect x="70" y="40" width="330" height="306" fill="#17150F" opacity=".08"/><circle cx="235" cy="168" r="76" fill="#17150F" opacity=".82"/><path d="M129 346c0-58 47-104 106-104s106 46 106 104z" fill="#17150F" opacity=".82"/><circle cx="235" cy="168" r="76" fill="none" stroke="#E23A21" stroke-width="4"/><rect x="70" y="40" width="330" height="6" fill="#E23A21" /><text x="470" y="74" font-family="'Space Mono',Courier,monospace" font-size="13" font-weight="700" letter-spacing="1.6" fill="#17150F">PORTRAIT — DHAKA, BANGLADESH</text><g stroke="#17150F" stroke-opacity=".38"><path d="M470 104h230M470 130h176M470 156h122M470 182h230M470 208h176M470 234h122M470 260h230M470 286h176M470 312h122"/></g><text x="470" y="396" font-family="'Archivo','Arial Black',Arial" font-size="58" font-weight="900" letter-spacing="-1.7" fill="#17150F">ARMAN</text><g stroke="#17150F" stroke-opacity=".35"><path d="M44 376h240"/></g><text x="44" y="402" font-family="'Space Mono',Courier,monospace" font-size="17" font-weight="700" letter-spacing="2.0" fill="#17150F">THE AUTHOR</text><text x="44" y="424" font-family="'Space Mono',Courier,monospace" font-size="12" font-weight="700" letter-spacing="1.4" fill="#6B6557">PLATE 09 — SHIKI CODE STUDIO</text></svg>
