<svg xmlns="http://www.w3.org/2000/svg" width="800" height="450" viewBox="0 0 800 450" role="img"><rect x="0" y="0" width="800" height="450" fill="#E9E5D8" /><g stroke="#17150F" stroke-opacity=".1"><path d="M100 0v450M200 0v450M300 0v450M400 0v450M500 0v450M600 0v450M700 0v450M0 90h800M0 180h800M0 270h800M0 360h800"/></g><g stroke="#17150F" stroke-opacity=".45" stroke-width="1.5">
      <path d="M24 16v16M16 24h16M776 16v16M768 24h16M24 418v16M16 426h16M776 418v16M768 426h16"/>
    </g><rect x="0" y="0" width="6" height="450" fill="#E23A21" /><rect x="70" y="62" width="190" height="286" fill="#E9E5D8" stroke="#17150F" stroke-width="2"/><text x="86" y="92" font-family="'Space Mono',Courier,monospace" font-size="13" font-weight="700" letter-spacing="1.6" fill="#17150F">POST /v1/orders</text><rect x="86" y="110" width="140" height="8" fill="#17150F" opacity=".55"/><rect x="86" y="136" width="108" height="8" fill="#17150F" opacity=".55"/><rect x="86" y="162" width="158" height="8" fill="#E23A21" /><rect x="86" y="188" width="92" height="8" fill="#17150F" opacity=".55"/><rect x="86" y="214" width="124" height="8" fill="#17150F" opacity=".55"/><rect x="86" y="258" width="158" height="1" fill="#17150F" opacity=".4"/><text x="86" y="286" font-family="'Space Mono',Courier,monospace" font-size="13" font-weight="700" letter-spacing="1.6" fill="#6B6557">200 OK · 84MS</text><g stroke="#17150F" stroke-opacity=".6" stroke-width="2" stroke-dasharray="7 7"><path d="M386 138L520 114M566 114L520 214M566 214L688 166"/></g><rect x="340" y="120" width="92" height="36" fill="#E9E5D8" stroke="#17150F" stroke-width="2"/><text x="352" y="144" font-family="'Space Mono',Courier,monospace" font-size="12" font-weight="700" letter-spacing="1.4" fill="#17150F">APP</text><rect x="520" y="96" width="92" height="36" fill="#E9E5D8" stroke="#17150F" stroke-width="2"/><text x="532" y="120" font-family="'Space Mono',Courier,monospace" font-size="12" font-weight="700" letter-spacing="1.4" fill="#17150F">GATE</text><rect x="520" y="196" width="92" height="36" fill="#E9E5D8" stroke="#17150F" stroke-width="2"/><text x="532" y="220" font-family="'Space Mono',Courier,monospace" font-size="12" font-weight="700" letter-spacing="1.4" fill="#17150F">AUTH</text><rect x="688" y="148" width="92" height="36" fill="#E23A21" stroke="#17150F" stroke-width="2"/><text x="700" y="172" font-family="'Space Mono',Courier,monospace" font-size="12" font-weight="700" letter-spacing="1.4" fill="#E9E5D8">DB</text><text x="340" y="330" font-family="'Archivo','Arial Black',Arial" font-size="120" font-weight="900" letter-spacing="-3.6" fill="#17150F">{ }</text><text x="470" y="320" font-family="'Space Mono',Courier,monospace" font-size="13" font-weight="700" letter-spacing="1.6" fill="#6B6557">VERSIONED REST · JSON</text><text x="470" y="344" font-family="'Space Mono',Courier,monospace" font-size="13" font-weight="700" letter-spacing="1.6" fill="#6B6557">LARAVEL · SANCTUM · QUEUE</text><g stroke="#17150F" stroke-opacity=".35"><path d="M44 376h240"/></g><text x="44" y="402" font-family="'Space Mono',Courier,monospace" font-size="17" font-weight="700" letter-spacing="2.0" fill="#17150F">API SURFACE</text><text x="44" y="424" font-family="'Space Mono',Courier,monospace" font-size="12" font-weight="700" letter-spacing="1.4" fill="#6B6557">PLATE 05 — SHIKI CODE STUDIO</text></svg>
