<svg xmlns="http://www.w3.org/2000/svg" width="800" height="450" viewBox="0 0 800 450" role="img"><rect x="0" y="0" width="800" height="450" fill="#E9E5D8" /><g stroke="#17150F" stroke-opacity=".1"><path d="M100 0v450M200 0v450M300 0v450M400 0v450M500 0v450M600 0v450M700 0v450M0 90h800M0 180h800M0 270h800M0 360h800"/></g><g stroke="#17150F" stroke-opacity=".45" stroke-width="1.5">
      <path d="M24 16v16M16 24h16M776 16v16M768 24h16M24 418v16M16 426h16M776 418v16M768 426h16"/>
    </g><rect x="0" y="0" width="6" height="450" fill="#E23A21" /><text x="70" y="108" font-family="'Space Mono',Courier,monospace" font-size="15" font-weight="700" letter-spacing="1.8" fill="#17150F">PRIMARY JOURNEY — FOUR STEPS</text><rect x="70" y="150" width="140" height="120" fill="#E9E5D8" stroke="#17150F" stroke-width="3"/><text x="86" y="186" font-family="'Space Mono',Courier,monospace" font-size="14" font-weight="700" letter-spacing="1.7" fill="#17150F">OPEN</text><rect x="86" y="202" width="108" height="7" fill="#17150F" opacity=".55"/><rect x="86" y="220" width="82" height="7" fill="#17150F" opacity=".55"/><rect x="86" y="238" width="56" height="7" fill="#17150F" opacity=".55"/><g stroke="#17150F" stroke-width="3"><path d="M216 210h24"/></g><rect x="248" y="150" width="140" height="120" fill="#E9E5D8" stroke="#17150F" stroke-width="3"/><text x="264" y="186" font-family="'Space Mono',Courier,monospace" font-size="14" font-weight="700" letter-spacing="1.7" fill="#17150F">BROWSE</text><rect x="264" y="202" width="108" height="7" fill="#17150F" opacity=".55"/><rect x="264" y="220" width="82" height="7" fill="#17150F" opacity=".55"/><rect x="264" y="238" width="56" height="7" fill="#17150F" opacity=".55"/><g stroke="#17150F" stroke-width="3"><path d="M394 210h24"/></g><rect x="426" y="150" width="140" height="120" fill="#E23A21" stroke="#17150F" stroke-width="3"/><text x="442" y="186" font-family="'Space Mono',Courier,monospace" font-size="14" font-weight="700" letter-spacing="1.7" fill="#E9E5D8">BUY</text><rect x="442" y="202" width="108" height="7" fill="#E9E5D8" opacity=".55"/><rect x="442" y="220" width="82" height="7" fill="#E9E5D8" opacity=".55"/><rect x="442" y="238" width="56" height="7" fill="#E9E5D8" opacity=".55"/><g stroke="#17150F" stroke-width="3"><path d="M572 210h24"/></g><rect x="604" y="150" width="140" height="120" fill="#E9E5D8" stroke="#17150F" stroke-width="3"/><text x="620" y="186" font-family="'Space Mono',Courier,monospace" font-size="14" font-weight="700" letter-spacing="1.7" fill="#17150F">TRACK</text><rect x="620" y="202" width="108" height="7" fill="#17150F" opacity=".55"/><rect x="620" y="220" width="82" height="7" fill="#17150F" opacity=".55"/><rect x="620" y="238" width="56" height="7" fill="#17150F" opacity=".55"/><g stroke="#17150F" stroke-opacity=".35"><path d="M44 376h240"/></g><text x="44" y="402" font-family="'Space Mono',Courier,monospace" font-size="17" font-weight="700" letter-spacing="2.0" fill="#17150F">SHOT — USER FLOW</text><text x="44" y="424" font-family="'Space Mono',Courier,monospace" font-size="12" font-weight="700" letter-spacing="1.4" fill="#6B6557">PLATE 02 — SHIKI CODE STUDIO</text></svg>
