<svg xmlns="http://www.w3.org/2000/svg" width="800" height="450" viewBox="0 0 800 450" role="img"><rect x="0" y="0" width="800" height="450" fill="#E9E5D8" /><g stroke="#17150F" stroke-opacity=".1"><path d="M100 0v450M200 0v450M300 0v450M400 0v450M500 0v450M600 0v450M700 0v450M0 90h800M0 180h800M0 270h800M0 360h800"/></g><g stroke="#17150F" stroke-opacity=".45" stroke-width="1.5">
      <path d="M24 16v16M16 24h16M776 16v16M768 24h16M24 418v16M16 426h16M776 418v16M768 426h16"/>
    </g><rect x="0" y="444" width="800" height="6" fill="#E23A21" /><g>
    <rect x="70" y="52" width="180" height="292" rx="18" fill="#E9E5D8" stroke="#17150F" stroke-width="3"/>
    <rect x="80" y="62" width="160" height="272" rx="10" fill="none" stroke="#17150F" stroke-opacity=".25"/>
    <rect x="136" y="68" width="48" height="6" rx="3" fill="#17150F" opacity=".55"/>
  </g><rect x="86" y="86" width="148" height="22" fill="#17150F" opacity=".85"/><rect x="86" y="120" width="148" height="30" fill="#17150F" opacity=".14"/><rect x="86" y="162" width="106" height="30" fill="#E23A21" opacity=".85"/><rect x="86" y="204" width="148" height="30" fill="#17150F" opacity=".14"/><rect x="86" y="246" width="106" height="30" fill="#E23A21" opacity=".85"/><rect x="86" y="296" width="148" height="26" fill="#E9E5D8" stroke="#17150F" stroke-width="2"/><text x="300" y="92" font-family="'Space Mono',Courier,monospace" font-size="13" font-weight="700" letter-spacing="1.6" fill="#6B6557">SOCKET · FCM · PRESENCE</text><rect x="300" y="116" width="267" height="40" fill="#E9E5D8" stroke="#17150F" stroke-width="2"/><rect x="314" y="130" width="207" height="7" fill="#17150F" opacity=".6"/><rect x="497" y="170" width="203" height="40" fill="#17150F" /><rect x="511" y="184" width="143" height="7" fill="#E9E5D8" opacity=".6"/><rect x="300" y="224" width="170" height="40" fill="#E9E5D8" stroke="#17150F" stroke-width="2"/><rect x="314" y="238" width="110" height="7" fill="#17150F" opacity=".6"/><rect x="499" y="278" width="201" height="40" fill="#17150F" /><rect x="513" y="292" width="141" height="7" fill="#E9E5D8" opacity=".6"/><rect x="300" y="332" width="222" height="40" fill="#E9E5D8" stroke="#17150F" stroke-width="2"/><rect x="314" y="346" width="162" height="7" fill="#17150F" opacity=".6"/><g stroke="#E23A21" stroke-width="3"><path d="M300 400h400"/></g><text x="300" y="424" font-family="'Space Mono',Courier,monospace" font-size="12" font-weight="700" letter-spacing="1.4" fill="#6B6557">DELIVERED — 32MS ROUND TRIP</text><g stroke="#17150F" stroke-opacity=".35"><path d="M44 376h240"/></g><text x="44" y="402" font-family="'Space Mono',Courier,monospace" font-size="17" font-weight="700" letter-spacing="2.0" fill="#17150F">REALTIME LAYER</text><text x="44" y="424" font-family="'Space Mono',Courier,monospace" font-size="12" font-weight="700" letter-spacing="1.4" fill="#6B6557">PLATE 07 — SHIKI CODE STUDIO</text></svg>
