<svg xmlns="http://www.w3.org/2000/svg" width="800" height="450" viewBox="0 0 800 450" role="img"><rect x="0" y="0" width="800" height="450" fill="#E9E5D8" /><g stroke="#17150F" stroke-opacity=".1"><path d="M100 0v450M200 0v450M300 0v450M400 0v450M500 0v450M600 0v450M700 0v450M0 90h800M0 180h800M0 270h800M0 360h800"/></g><g stroke="#17150F" stroke-opacity=".45" stroke-width="1.5">
      <path d="M24 16v16M16 24h16M776 16v16M768 24h16M24 418v16M16 426h16M776 418v16M768 426h16"/>
    </g><rect x="0" y="444" width="800" height="6" fill="#E23A21" /><g>
    <rect x="74" y="52" width="176" height="292" rx="18" fill="#E9E5D8" stroke="#17150F" stroke-width="3"/>
    <rect x="84" y="62" width="156" height="272" rx="10" fill="none" stroke="#17150F" stroke-opacity=".25"/>
    <rect x="138" y="68" width="48" height="6" rx="3" fill="#17150F" opacity=".55"/>
  </g><rect x="92" y="88" width="140" height="52" fill="#17150F" opacity=".85"/><rect x="92" y="154" width="140" height="8" fill="#17150F" opacity=".5"/><rect x="92" y="172" width="96" height="8" fill="#17150F" opacity=".3"/><rect x="92" y="198" width="140" height="30" fill="#E23A21" /><text x="104" y="219" font-family="'Space Mono',Courier,monospace" font-size="12" font-weight="700" letter-spacing="1.4" fill="#E9E5D8">ADD TO CART</text><rect x="92" y="244" width="66" height="8" fill="#6B6557" opacity=".5"/><rect x="300" y="92" width="128" height="126" fill="#E9E5D8" stroke="#17150F" stroke-opacity=".55"/><rect x="312" y="104" width="104" height="62" fill="#17150F" opacity="0.61"/><rect x="312" y="178" width="72" height="7" fill="#17150F" opacity=".7"/><rect x="312" y="192" width="44" height="7" fill="#6B6557" opacity=".6"/><rect x="452" y="92" width="128" height="126" fill="#E9E5D8" stroke="#17150F" stroke-opacity=".55"/><rect x="464" y="104" width="104" height="62" fill="#17150F" opacity="0.41"/><rect x="464" y="178" width="72" height="7" fill="#17150F" opacity=".7"/><rect x="464" y="192" width="44" height="7" fill="#6B6557" opacity=".6"/><rect x="604" y="92" width="128" height="126" fill="#E9E5D8" stroke="#17150F" stroke-opacity=".55"/><rect x="616" y="104" width="104" height="62" fill="#E23A21" opacity="0.72"/><rect x="616" y="178" width="72" height="7" fill="#17150F" opacity=".7"/><rect x="616" y="192" width="44" height="7" fill="#6B6557" opacity=".6"/><rect x="300" y="242" width="128" height="126" fill="#E9E5D8" stroke="#17150F" stroke-opacity=".55"/><rect x="312" y="254" width="104" height="62" fill="#17150F" opacity="0.26"/><rect x="312" y="328" width="72" height="7" fill="#17150F" opacity=".7"/><rect x="312" y="342" width="44" height="7" fill="#6B6557" opacity=".6"/><rect x="452" y="242" width="128" height="126" fill="#E9E5D8" stroke="#17150F" stroke-opacity=".55"/><rect x="464" y="254" width="104" height="62" fill="#17150F" opacity="0.26"/><rect x="464" y="328" width="72" height="7" fill="#17150F" opacity=".7"/><rect x="464" y="342" width="44" height="7" fill="#6B6557" opacity=".6"/><rect x="604" y="242" width="128" height="126" fill="#E9E5D8" stroke="#17150F" stroke-opacity=".55"/><rect x="616" y="254" width="104" height="62" fill="#17150F" opacity="0.65"/><rect x="616" y="328" width="72" height="7" fill="#17150F" opacity=".7"/><rect x="616" y="342" width="44" height="7" fill="#6B6557" opacity=".6"/><circle cx="726" cy="60" r="19" fill="#E23A21"/><text x="719" y="66" font-family="'Space Mono',Courier,monospace" font-size="16" font-weight="700" letter-spacing="1.9" fill="#E9E5D8">3</text><text x="300" y="76" font-family="'Space Mono',Courier,monospace" font-size="13" font-weight="700" letter-spacing="1.6" fill="#6B6557">CATALOG · CART · CHECKOUT</text><g stroke="#17150F" stroke-opacity=".35"><path d="M44 376h240"/></g><text x="44" y="402" font-family="'Space Mono',Courier,monospace" font-size="17" font-weight="700" letter-spacing="2.0" fill="#17150F">COMMERCE FLOW</text><text x="44" y="424" font-family="'Space Mono',Courier,monospace" font-size="12" font-weight="700" letter-spacing="1.4" fill="#6B6557">PLATE 02 — SHIKI CODE STUDIO</text></svg>
